<svg width="723" height="621" viewBox="0 0 723 621" fill="none" xmlns="http://www.w3.org/2000/svg">
<g filter="url(#filter0_d_9_595)">
<rect x="333.896" y="177.962" width="12.8422" height="11.344" rx="5.67198" fill="url(#paint0_linear_9_595)"/>
</g>
<g filter="url(#filter1_d_9_595)">
<rect x="681.491" y="323.921" width="12.8422" height="11.344" rx="5.67198" fill="url(#paint1_linear_9_595)"/>
</g>
<g filter="url(#filter2_d_9_595)">
<rect x="544.508" y="438.873" width="12.8422" height="11.344" rx="5.67198" fill="url(#paint2_linear_9_595)"/>
</g>
<g filter="url(#filter3_d_9_595)">
<rect x="300.507" y="429.798" width="26.5405" height="23.4442" rx="11.7221" fill="url(#paint3_linear_9_595)"/>
</g>
<g filter="url(#filter4_d_9_595)">
<rect x="536.803" y="395.01" width="15.4106" height="13.6127" rx="6.80637" fill="url(#paint4_linear_9_595)"/>
</g>
<g filter="url(#filter5_d_9_595)">
<rect x="124.141" y="394.253" width="15.4106" height="13.6127" rx="6.80637" fill="url(#paint5_linear_9_595)"/>
</g>
<g filter="url(#filter6_d_9_595)">
<rect x="455.469" y="456.267" width="7.7053" height="6.80637" rx="3.40319" fill="url(#paint6_linear_9_595)"/>
</g>
<path d="M385.664 68.9857C385.664 68.9857 310.109 71.145 290.986 101.914C272.362 131.879 307.754 188.185 307.754 188.185C307.754 188.185 359.454 263.34 345.202 311.638C320.872 394.091 165.578 308.905 110.126 378.627C48.3711 456.274 143.794 619.789 143.794 619.789" stroke="#01FF88" stroke-width="0.8"/>
<path d="M633.083 578.512C633.083 578.512 684.779 529.793 673.671 496.092C662.853 463.27 592.754 445.562 592.754 445.562C592.754 445.562 496.036 424.712 467.451 381.658C418.652 308.158 596.652 271.395 580.051 187.458C561.562 93.9807 363.194 37.9606 363.194 37.9606" stroke="#01FF88" stroke-width="0.8"/>
<path d="M429.473 303.974C439.601 307.145 451.267 311.562 463.703 330.586C476.138 349.611 486.01 377.357 477.804 386.076C469.6 394.796 456.011 392.644 453.96 387.548C451.907 382.452 429.473 303.974 429.473 303.974Z" fill="#FF04AA"/>
<path d="M376.842 305.32C362.508 309.892 348.174 320.797 341.205 335.744C334.237 350.692 330.673 368.411 337.224 376.367C345.188 386.04 364.3 380.764 369.278 372.147C374.254 363.53 376.842 305.32 376.842 305.32Z" fill="#FF04AA"/>
<path d="M406.352 300.952C384.498 301.514 369.817 302.443 366.133 317.63C362.898 330.965 362.989 391.56 361.373 406.992C358.821 431.371 358.457 436.959 360.607 437.772C362.755 438.587 385.321 443.062 420.167 441.841C455.015 440.62 464.226 439.128 465.454 435.602C466.682 432.077 464.685 425.432 464.072 421.365C463.458 417.298 448.697 337.591 445.343 322.782C441.966 307.868 437.975 300.137 406.352 300.952Z" fill="#FF7BBB"/>
<path d="M458.568 362.97C467.084 361.904 478.055 366.368 477.927 376.22C477.799 386.072 465.748 393.206 450.108 391.507C434.468 389.81 403.059 384.373 390.88 381.881C378.7 379.39 366.649 377.126 363.188 374.068C359.726 371.011 361.778 367.5 364.727 367.5C367.675 367.5 370.366 371.011 394.342 371.011C418.314 371.011 441.39 365.122 458.568 362.97Z" fill="#FDC68A"/>
<path d="M347.969 378.306C338.725 376.633 336.82 365.996 338.811 353.51C340.205 344.775 350.507 323.134 355.625 310.044C361.114 296.003 364.098 292.279 366.891 293.418C370.492 294.889 366.248 299.931 366.646 306.437C367.044 312.943 368.156 337.57 368.299 350.233C368.499 367.819 359.548 380.403 347.969 378.306Z" fill="#FDC68A"/>
<path d="M373.264 219.845C373.264 219.845 354.578 213.513 366.842 203.283C379.103 193.051 399.538 192.565 405.963 196.948C412.384 201.334 410.632 218.386 408.297 219.358C405.963 220.334 376.183 222.281 373.264 219.845Z" fill="#5A381D"/>
<path d="M415.601 304.091L412.469 266.685L395.843 265.706L395.141 302.555C396.829 311.973 414.375 309.171 415.601 304.091Z" fill="#ED9F5E"/>
<path d="M444.48 248.991C448.178 269.155 435.586 292.929 415.475 295.83C388.861 299.666 371.337 276.304 367.637 256.136C363.932 235.97 380.404 219.031 403.057 215.761C425.71 212.49 440.776 228.826 444.48 248.991Z" fill="#FDC68A"/>
<path d="M408.576 267.537C409.718 267.135 410.947 266.885 412.211 266.892C413.454 266.901 414.824 267.166 415.774 268.092C416.218 268.546 416.473 269.271 416.204 269.863C416.138 270.177 415.894 270.4 415.741 270.666C415.516 270.875 415.294 271.092 415.05 271.276C414.051 271.996 412.862 272.368 411.689 272.673C412.756 272.14 413.86 271.663 414.704 270.933C415.564 270.252 416.021 269.169 415.254 268.474C414.558 267.76 413.34 267.45 412.182 267.348C410.997 267.251 409.792 267.372 408.576 267.537Z" fill="#9D5F54"/>
<path d="M399.902 279.725C401.878 280.279 403.792 280.736 405.751 281.223C407.693 281.722 409.953 281.253 411.837 281.94C409.661 281.839 407.289 282.43 405.286 281.94C404.292 281.682 403.311 281.395 402.39 281.035C401.471 280.679 400.588 280.257 399.902 279.725Z" fill="#9D5F54"/>
<path d="M407.064 282.097C408.996 281.686 410.763 281.196 412.596 280.716C414.435 280.259 416.261 279.768 418.313 279.561C416.86 280.61 415.127 281.303 413.263 281.804C412.319 282.035 411.344 282.225 410.309 282.297C409.279 282.373 408.184 282.353 407.064 282.097Z" fill="#9D5F54"/>
<path d="M420.79 261.859C420.983 262.511 421.735 262.902 422.472 262.733C423.208 262.564 423.652 261.899 423.461 261.248C423.269 260.597 422.516 260.206 421.778 260.374C421.041 260.544 420.599 261.209 420.79 261.859Z" fill="#5B3118"/>
<path d="M418.909 249.583C428.373 250.886 437.177 252.997 431.08 252.555C424.982 252.115 412.666 248.723 418.909 249.583Z" fill="#935025"/>
<path d="M398.583 261.859C398.392 262.511 397.639 262.902 396.902 262.733C396.165 262.564 395.722 261.899 395.913 261.248C396.105 260.597 396.858 260.206 397.595 260.374C398.331 260.544 398.775 261.209 398.583 261.859Z" fill="#5B3118"/>
<path d="M400.459 249.583C390.993 250.886 382.19 252.997 388.287 252.555C394.385 252.115 406.701 248.723 400.459 249.583Z" fill="#935025"/>
<path d="M390.792 265.162C390.792 265.85 388.775 266.407 386.287 266.407C383.798 266.407 381.78 265.85 381.78 265.162C381.78 264.475 383.798 263.918 386.287 263.918C388.775 263.918 390.792 264.475 390.792 265.162Z" fill="#F69D98"/>
<path d="M438.294 265.162C438.294 265.85 436.277 266.407 433.789 266.407C431.302 266.407 429.283 265.85 429.283 265.162C429.283 264.475 431.302 263.918 433.789 263.918C436.277 263.918 438.294 264.475 438.294 265.162Z" fill="#F69D98"/>
<path d="M417.304 214.77L413.633 211.959C408.054 208.284 398.959 207.099 383.619 210.707C371.387 213.584 357.311 219.428 358.8 238.158C359.422 245.986 363.713 252.056 365.834 259.448C367.894 259.537 369.453 259.241 371.151 260.327C372.471 261.17 374.208 263.72 374.724 264.52C373.81 255.786 373.618 248.479 382.632 243.489C390.854 238.938 393.485 231.385 392.17 227.705C398.176 226.28 408.625 228.215 413.078 224.502C418.239 220.201 421.265 217.913 417.304 214.77Z" fill="#794D2E"/>
<path d="M406.673 210.46C400.697 211.094 389.802 217.474 386.822 222.089L386.395 222.433C380.734 228.516 405.92 244.172 411.747 246.676C418.192 249.446 427.403 255.022 434.093 256.024C434.187 255.085 431.478 247.658 431.386 247.208C433.06 250.46 434.462 251.666 435.4 252.651C442.171 259.763 444.389 264.601 445.263 269.534C450.851 254.643 452.196 231.391 438.386 219.317C430.767 212.654 422.197 208.815 406.673 210.46Z" fill="#794D2E"/>
<path d="M376.585 262.62C378.242 266.715 378.187 269.759 375.345 270.673C372.5 271.589 366.375 269.588 364.72 265.492C363.063 261.4 364.03 257.341 366.874 256.426C369.723 255.503 374.933 258.534 376.585 262.62Z" fill="#FDC68A"/>
<path d="M360.581 298.383C360.149 294.207 360.73 289.076 362.061 286.555C364.397 282.139 369.459 282.482 372.494 283.696C375.53 284.911 375.551 290.637 374.532 292.495C371.807 297.467 367.321 298.07 366.437 300.228C365.281 301.371 360.59 300.169 360.581 298.383Z" fill="#FDC68A"/>
<path d="M367.772 281.385C372.951 282.305 372.849 284.422 372.741 287.782C372.653 290.482 369.064 290.945 365.191 290.424C362.442 290.054 361.366 288.286 361.366 288.286C361.366 288.286 363.195 280.572 367.772 281.385Z" fill="#FDC68A"/>
<path d="M363.946 286.635C363.867 287.362 363.895 288.11 364.153 288.777C364.399 289.455 365.001 289.955 365.729 290.224C366.451 290.509 367.26 290.636 368.068 290.712C368.872 290.794 369.681 290.782 370.437 290.595C371.191 290.411 371.871 290.021 372.334 289.461C372.807 288.909 373.064 288.221 373.172 287.526C373.303 286.815 373.132 286.127 372.898 285.422C372.686 284.725 372.433 284.017 371.902 283.446C372.498 283.965 372.86 284.663 373.146 285.353C373.276 285.709 373.418 286.041 373.503 286.426C373.577 286.802 373.591 287.182 373.557 287.561C373.493 288.316 373.211 289.068 372.695 289.697C372.188 290.332 371.413 290.794 370.574 291.009C369.734 291.239 368.847 291.227 368.013 291.129C367.181 291.033 366.336 290.891 365.548 290.561C364.765 290.226 364.107 289.597 363.899 288.848C363.69 288.103 363.782 287.35 363.946 286.635Z" fill="#D28C56"/>
<path d="M369.812 292.88C371.637 295.575 374.642 294.492 376.601 292.573C378.559 290.653 379.37 288.997 378.381 287.758C377.393 286.519 370.494 286.349 369.931 288.14C369.367 289.93 371.041 290.522 372.733 290.33C369.64 291.395 369.812 292.88 369.812 292.88Z" fill="#FCBC81"/>
<path d="M363.823 285.433C363.97 285.763 363.986 286.053 364.084 286.307C364.103 286.439 364.161 286.543 364.212 286.62C364.256 286.704 364.403 286.751 364.606 286.781C364.488 286.917 364.234 287.012 363.989 286.897C363.755 286.785 363.668 286.581 363.6 286.416C363.534 286.065 363.561 285.717 363.823 285.433Z" fill="#D28C56"/>
<path d="M370.274 293.612C369.932 293.142 369.926 292.512 370.163 291.98C370.398 291.442 370.863 291.01 371.374 290.675C371.902 290.354 372.495 290.127 373.105 289.995C373.712 289.846 374.342 289.81 374.961 289.802C373.759 290.045 372.54 290.295 371.574 290.923C371.082 291.217 370.667 291.608 370.406 292.075C370.157 292.539 370.052 293.095 370.274 293.612Z" fill="#D28C56"/>
<path d="M370.474 287.588C370.011 288.153 369.883 288.894 370.308 289.413C370.491 289.683 370.796 289.877 371.127 290.036C371.457 290.198 371.835 290.292 372.216 290.403C371.819 290.405 371.404 290.389 371.018 290.25C370.631 290.124 370.268 289.897 370.018 289.58C369.79 289.254 369.689 288.846 369.796 288.478C369.89 288.109 370.145 287.79 370.474 287.588Z" fill="#D28C56"/>
<path d="M437.19 348.66C437.325 350.63 424.297 352.931 408.091 353.802C391.883 354.672 378.636 353.782 378.501 351.813C378.366 349.843 391.394 347.54 407.6 346.671C423.807 345.8 437.054 346.691 437.19 348.66Z" fill="#FF04AA"/>
<path d="M122.33 298.36C122.536 295.979 122.208 293.448 120.066 292.22C115.978 289.878 111.007 286.852 108.908 284.95C106.942 283.167 109.571 279.179 111.524 277.114C113.479 275.05 115.922 274.688 117.776 276.059C119.784 277.543 122.087 279.004 126.82 283.163C129.729 285.721 127.96 288.094 129.251 297.516C128.183 299.136 123.938 299.605 122.33 298.36Z" fill="#FDC68A"/>
<path d="M120.997 280.497C116.719 275.551 114.486 272.439 113.072 270.158C111.657 267.877 111.207 266.767 109.827 267.622C108.447 268.478 111.47 274.968 111.47 274.968C111.47 274.968 101.135 269.839 99.7633 272.418C97.9914 275.753 97.18 277.588 100.257 280.136C103.335 282.684 110.503 284.96 113.703 287.598C116.902 290.237 120.084 287.097 120.997 280.497Z" fill="#FDC68A"/>
<path d="M104.043 279.564L103.037 259.033L125.004 258.193L126.01 278.725L104.043 279.564ZM102.028 247.156C101.941 245.403 101.95 243.668 102.058 241.95C102.162 240.233 102.553 238.587 103.235 237.013C103.915 235.441 104.976 233.916 106.418 232.44C107.86 230.963 109.83 229.593 112.323 228.325C113.337 227.786 114.793 227.062 116.688 226.153C118.584 225.245 120.472 224.169 122.353 222.925C124.231 221.685 125.845 220.305 127.191 218.789C128.536 217.275 129.167 215.642 129.08 213.889C128.986 211.97 128.062 210.477 126.305 209.418C124.55 208.355 122.537 207.868 120.27 207.953C118.569 208.019 117.117 208.369 115.92 208.998C114.718 209.63 113.691 210.382 112.835 211.248C111.978 212.117 111.264 213.002 110.693 213.902C110.121 214.802 109.568 215.556 109.029 216.161L91.3538 206.049C93.56 200.865 97.2384 196.752 102.391 193.712C107.543 190.674 113.522 189.023 120.323 188.764C123.913 188.625 127.573 188.946 131.304 189.723C135.033 190.5 138.435 191.832 141.51 193.723C144.584 195.611 147.122 198.148 149.123 201.332C151.125 204.517 152.242 208.446 152.469 213.119C152.665 217.125 152.017 220.81 150.527 224.169C149.034 227.53 146.224 230.542 142.096 233.207C140.078 234.54 138.005 235.706 135.878 236.706C133.748 237.709 131.787 238.703 129.989 239.69C128.192 240.681 126.726 241.696 125.595 242.744C124.461 243.79 123.931 244.983 123.995 246.316L102.028 247.156Z" fill="url(#paint7_linear_9_595)"/>
<path d="M222.865 288.265C210.32 290.379 192.993 292.066 175.344 314.061C157.696 336.057 142.937 352.354 138.618 358.328C134.3 364.304 129.282 374.197 137.419 382.572C145.553 390.949 160.218 380.939 172.949 368.023C185.681 355.109 198.778 340.392 206.476 329.966C214.172 319.54 226.061 292.844 222.865 288.265Z" fill="#ECECE8"/>
<path d="M120.06 297.166C122.541 297.304 128.65 296.319 130.977 295.18C133.559 302.705 139.591 321.275 145.031 335.13C152.389 353.87 167.619 372.957 153.139 381.18C140.177 388.541 133.132 383.398 127.979 363.035C122.364 340.843 120.06 297.166 120.06 297.166Z" fill="#ECECE8"/>
<path d="M316.582 242.91C303.483 253.474 262.102 293.595 258.412 298.981C254.723 304.365 278.868 340.564 284.765 333.557C292.143 324.792 319.467 295.179 331.832 278.273C341.36 265.245 346.311 255.873 348.225 250.609C351.636 241.237 350.398 234.034 341.784 232.031C334.583 230.356 325.299 235.88 316.582 242.91Z" fill="#ECECE8"/>
<path d="M236.461 285.019C209.571 284.595 194.704 295.815 190.77 313.172C186.835 330.53 185.305 419.859 185.742 429.384C186.179 438.909 254.387 446.318 293.957 429.384C292.425 415.624 287.835 338.574 287.398 330.741C286.961 322.91 280.402 285.711 236.461 285.019Z" fill="#E0E0E0"/>
<path d="M248.033 290.427L245.851 257.262L223.974 258.163L220.833 290.565C227.291 293.256 241.033 293.311 248.033 290.427Z" fill="#EDA76A"/>
<path d="M207.912 240.302C210.308 245.786 210.259 250.007 206.206 251.596C202.156 253.186 193.396 251.094 191 245.609C188.602 240.119 189.946 234.387 194.001 232.799C198.051 231.212 205.516 234.816 207.912 240.302Z" fill="#FDC68A"/>
<path d="M197.901 246.813C201.158 265.594 216.313 278.201 237.701 276.533C257.157 275.016 270.61 250.996 271.157 229.082C271.704 207.169 258.411 189.835 234.919 190.157C198.942 190.648 191.039 207.237 197.901 246.813Z" fill="#FDC68A"/>
<path d="M259.684 238.554C257.21 244.012 257.199 248.231 261.231 249.865C265.258 251.498 274.044 249.504 276.517 244.044C278.994 238.582 277.727 232.838 273.698 231.204C269.672 229.571 262.156 233.093 259.684 238.554Z" fill="#FDC68A"/>
<path d="M226.025 237.273C228.185 236.484 230.536 235.993 232.946 236.033C235.31 236.08 237.917 236.554 239.743 238.311C240.62 239.191 241.013 240.57 240.565 241.704C240.152 242.841 239.297 243.717 238.352 244.392C236.453 245.76 234.195 246.507 231.945 247.045C234.018 246.099 236.065 245.084 237.683 243.729C238.47 243.047 239.155 242.264 239.392 241.41C239.676 240.567 239.414 239.707 238.759 239.044C238.121 238.361 237.153 237.885 236.139 237.546C235.118 237.195 234.009 237.021 232.889 236.915C230.64 236.731 228.328 236.905 226.025 237.273Z" fill="#9D5F54"/>
<path d="M222.398 236.346C222.19 237.054 221.371 237.48 220.568 237.296C219.765 237.111 219.284 236.388 219.492 235.679C219.7 234.97 220.519 234.546 221.322 234.728C222.124 234.912 222.606 235.638 222.398 236.346Z" fill="#5B3118"/>
<path d="M223.674 222.341C211.065 223.116 204.149 227.543 212.162 227.486C220.175 227.431 231.988 221.83 223.674 222.341Z" fill="#935025"/>
<path d="M242.062 236.346C242.27 237.054 243.089 237.48 243.892 237.296C244.693 237.111 245.175 236.388 244.967 235.679C244.757 234.97 243.939 234.546 243.137 234.728C242.334 234.912 241.854 235.638 242.062 236.346Z" fill="#5B3118"/>
<path d="M240.777 222.341C253.385 223.116 260.301 227.543 252.288 227.486C244.276 227.431 232.463 221.83 240.777 222.341Z" fill="#935025"/>
<path d="M211.382 239.939C211.382 240.687 209.185 241.294 206.477 241.294C203.769 241.294 201.573 240.687 201.573 239.939C201.573 239.192 203.769 238.586 206.477 238.586C209.185 238.586 211.382 239.192 211.382 239.939Z" fill="#F69D98"/>
<path d="M263.082 239.939C263.082 240.687 260.886 241.294 258.178 241.294C255.47 241.294 253.274 240.687 253.274 239.939C253.274 239.192 255.47 238.586 258.178 238.586C260.886 238.586 263.082 239.192 263.082 239.939Z" fill="#F69D98"/>
<path d="M199.604 259.835C204.19 269.01 210.596 275.625 217.932 278.172C231.209 282.781 242.711 281.348 252.54 276.455C274.66 265.444 270.243 209.671 270.243 209.671L263.996 210.749C263.996 210.749 265.636 247.359 259.876 253.357C257.423 255.911 247.498 250.934 234.364 250.822C218.837 250.686 206.082 256.795 203.815 254.058C201.096 250.784 196.963 231.637 201.848 210.469C203.793 202.032 192.298 210.198 192.298 210.198C192.298 210.198 193.677 247.974 199.604 259.835Z" fill="#AB662D"/>
<path d="M219.934 188.107L223.877 185.604C229.121 181.757 246.739 177.777 253.11 182.41C251.603 182.435 252.647 183.223 251.132 183.293C259.92 185.036 274.338 188.364 275.35 205.288C275.809 212.967 274.472 223.564 272.823 230.891C270.811 231.072 270.914 230.271 269.317 231.407C268.073 232.292 267.785 232.731 267.327 233.541C267.716 224.953 264.567 213.3 257.532 206.507C254.248 203.338 245.488 204.756 240.731 203.86C234.773 202.734 229.2 200.87 224.63 197.439C219.334 193.463 216.241 191.36 219.934 188.107Z" fill="#AB662D"/>
<path d="M227.494 185.457C233.181 187.172 240.568 188.51 243.796 193.357L242.029 192.888C247.993 199.199 230.258 216.373 225.685 220.47C220.463 225.153 213.68 227.522 207.156 228.907C207.001 227.895 207.136 226.782 207.4 225.726C207.666 225.125 207.864 224.549 207.924 224.06C207.726 224.578 207.542 225.143 207.4 225.726C206.669 227.349 205.358 229.171 204.312 230.119C201.876 232.328 196.122 239.229 195.574 244.596C187.638 216.696 186.153 200.542 200.899 188.822C208.378 182.875 223.585 184.279 227.494 185.457Z" fill="#AB662D"/>
<path d="M221.259 259.458C222.929 259.562 224.591 259.962 226.147 260.464C227.71 260.949 229.218 261.43 230.796 261.73C233.941 262.39 237.22 262.609 240.525 263.086C238.868 263.29 237.197 263.412 235.522 263.361C233.845 263.342 232.162 263.17 230.503 262.838C228.847 262.498 227.246 261.934 225.763 261.28C224.272 260.641 222.825 259.994 221.259 259.458Z" fill="#3F211B"/>
<path d="M286.738 186.095C283.582 183.612 279.621 177.248 273.109 175.436C266.596 173.624 260.025 175.659 254.959 181.296C249.893 186.934 252.05 188.694 253.603 187.801C255.159 186.907 262.456 181.507 266.253 181.501C270.05 181.493 273.478 185.486 279.499 187.648C285.563 189.823 286.529 188.603 286.738 186.095Z" fill="#FDC68A"/>
<path d="M285.95 181.792C285.117 183.723 282.09 186.515 277.811 188.152C290.213 199.161 309.753 237.21 314.971 248.406C320.189 259.6 337.98 261.629 345.562 253.368C352.845 245.433 353.877 236.193 330.833 216.628C310.152 199.068 285.95 181.792 285.95 181.792Z" fill="#ECECE8"/>
<path d="M125.426 287.062C120.573 287.974 119.072 282.817 119.945 280.498C120.82 278.179 121.049 275.519 120.565 273.454C120.079 271.389 120.249 269.223 122.157 268.926C124.065 268.628 123.79 271.39 124.689 275.917C125.59 280.446 130.807 286.052 125.426 287.062Z" fill="#FDC68A"/>
<path d="M599.6 272.959C607.721 270.063 620.953 272.677 632.474 285.163C644.963 298.7 649.379 318.724 652.029 369.438C653.654 400.547 649.148 438.98 649.148 438.98C649.148 438.98 601.983 458.129 559.818 438.56C559.105 419.833 562.678 342.609 567.919 313.991C573.159 285.374 587.212 277.377 599.6 272.959Z" fill="#5497FF"/>
<path d="M525.887 364.955C525.887 364.955 510.16 363.326 501.229 362.212C492.299 361.096 487.675 357.647 483.697 354.726C480.409 352.312 478.169 350.072 479.678 348.834C481.692 347.181 488.065 353.173 489.639 354.179C492.066 355.731 493.699 356.539 496.613 356.871C500.229 357.281 507.151 357.323 509.675 355.78C512.198 354.237 507.054 350.12 505.404 348.233C503.754 346.347 502.977 345.232 504.82 344.546C506.666 343.86 513.85 349.776 516.179 352.95C518.509 356.123 524.626 359.809 527.732 360.239C528.759 362.042 525.887 364.955 525.887 364.955Z" fill="#FABE7C"/>
<path d="M614.487 277.397L604.095 227.921L570.308 232.318L582.073 289.478C590.231 294.286 607.208 282.531 614.487 277.397Z" fill="#ED9F5E"/>
<path d="M608.239 261.248C608.239 261.248 573.966 293.197 560.355 286.607C558.303 285.616 547.154 268.254 546.392 266.979C539.421 255.309 532.493 234.656 532.158 225.425C531.258 200.605 550.444 178.948 571.565 180.819C592.683 182.694 641.842 196.455 608.239 261.248Z" fill="#FABE7C"/>
<path d="M545.239 241.278L545.32 241.209L543.676 239.171C539.815 245.6 534.562 250.715 529.906 255.962C544.577 263.605 554.146 251.828 547.962 240.03C546.795 240.304 545.784 240.909 545.239 241.278C544.717 241.635 544.645 241.774 545.239 241.278Z" fill="#FABE7C"/>
<path d="M591.634 236.131C596.427 243.931 603.184 260.854 611.088 261.699C617.454 251.868 625.968 237.269 628.027 225.963C630.034 214.953 627.881 193.669 607.919 185.709C588.296 176.175 581.46 175.355 573.056 177.257C566.264 178.795 553.103 182.842 546.485 188.457C543.432 191.046 540.531 194.198 538.4 197.383C537.166 199.226 536.427 203.848 535.409 206.638L536.064 205.58C542.873 207.805 553.759 196.116 559.355 200.455C565.844 205.475 567.325 225.672 572.978 231.362C577.806 236.228 584.848 230.158 591.634 236.131Z" fill="#935025"/>
<path d="M595.958 235.186C596.016 241.286 591.381 249.091 586.843 249.123C582.304 249.154 578.574 244.241 578.516 238.14C578.458 232.041 580.569 223.736 586.601 223.992C591.133 224.186 595.899 229.086 595.958 235.186Z" fill="#FABE7C"/>
<path d="M532.935 210.543C538.493 212.452 550.638 211.413 554.739 210.839C556.985 210.525 559.209 210.14 561.417 209.701C558.839 208.002 556.217 206.063 554.462 204.27C552.283 202.044 544.991 195.652 543.317 194.866C543.246 196.026 543.891 197.507 544.239 198.871C541.08 195.597 535.871 193.732 532.79 190.302C532.547 192.349 532.728 194.313 533.174 196.424C530.742 195.089 529.04 192.768 527.537 190.874C526.368 193.875 527.91 198.055 528.866 201.324C529.447 203.316 530.856 207.368 532.935 210.543Z" fill="#CA8D51"/>
<path d="M572.272 262.214C571.874 262.967 571.262 263.61 570.625 264.186C569.987 264.771 569.291 265.285 568.591 265.789C567.159 266.765 565.698 267.67 564.021 268.391C565.07 267.024 566.434 265.944 567.837 264.948C569.262 263.954 570.739 263.122 572.272 262.214Z" fill="#935025"/>
<path d="M544.479 246.658C545.048 247.402 546.19 247.597 547.033 247.095C547.874 246.593 548.097 245.583 547.528 244.84C546.96 244.096 545.817 243.9 544.976 244.401C544.134 244.904 543.911 245.914 544.479 246.658Z" fill="#5B3118"/>
<path d="M536.532 230.929C551.458 227.278 561.497 229.899 552.212 232.722C542.927 235.547 526.689 233.337 536.532 230.929Z" fill="#935025"/>
<path d="M592.051 199.994C576.496 174.081 516.701 176.328 516.701 176.328C508.06 203.577 521.223 211.365 529.163 214.409C548.23 221.722 574.516 202.052 588.541 213.228C595.601 218.855 606.799 258.682 606.799 258.682C606.799 258.682 624.123 219.301 616.051 203.631C610.126 192.129 592.051 199.994 592.051 199.994Z" fill="#935025"/>
<path d="M609.774 181.325C606.239 181.515 605.268 182.903 605.268 182.903C608.202 179.062 607.052 173.407 607.052 173.407C599.886 176.293 600.057 181.146 600.057 181.146C597.371 174.702 587.305 171.945 587.305 171.945C587.1 177.071 592.71 182.778 593.026 182.964L597.6 190.575L608.806 189.947L608.174 185.503C610.215 183.385 609.774 181.325 609.774 181.325Z" fill="#935025"/>
<path d="M540.134 172.563C539.96 176.251 543.15 180.275 543.15 180.275C543.15 180.275 601.165 222.513 592.048 199.989C582.93 177.463 540.134 172.563 540.134 172.563Z" fill="#935025"/>
<path d="M621.383 284.09C609.63 283.953 599.949 292.945 598.891 316.299C598.158 332.485 599.537 351.962 600.172 359.69C600.321 361.487 598.641 362.98 596.605 362.858C582.06 361.986 531.262 358.951 527.908 358.951C523.991 358.951 521.677 366.029 526.306 368.231C530.935 370.432 572.598 385.373 595.388 389.777C618.177 394.181 636.595 393.35 638.118 385.531C641.114 370.146 642.212 325.295 640.075 310.512C637.94 295.728 634.913 284.248 621.383 284.09Z" fill="#0467FF"/>
<ellipse cx="470.88" cy="282.326" rx="5.13687" ry="4.53758" fill="url(#paint8_linear_9_595)"/>
<ellipse cx="496.564" cy="310.825" rx="5.13687" ry="4.53758" fill="url(#paint9_linear_9_595)"/>
<ellipse cx="512.831" cy="310.824" rx="2.56843" ry="2.26879" fill="url(#paint10_linear_9_595)"/>
<circle cx="2.42325" cy="2.42325" r="2.42325" transform="matrix(0.749472 0.662036 -0.749472 0.662036 508.066 317.776)" fill="url(#paint11_linear_9_595)"/>
<ellipse cx="496.288" cy="325.193" rx="2.26879" ry="2.56843" transform="rotate(90 496.288 325.193)" fill="url(#paint12_linear_9_595)"/>
<circle cx="2.42325" cy="2.42325" r="2.42325" transform="matrix(-0.749472 0.662036 -0.749472 -0.662036 488.418 320.985)" fill="url(#paint13_linear_9_595)"/>
<ellipse cx="480.297" cy="310.824" rx="2.56843" ry="2.26879" fill="url(#paint14_linear_9_595)"/>
<circle cx="2.42325" cy="2.42325" r="2.42325" transform="matrix(0.749472 0.662036 -0.749472 0.662036 485.062 297.455)" fill="url(#paint15_linear_9_595)"/>
<ellipse cx="496.288" cy="296.455" rx="2.26879" ry="2.56843" transform="rotate(90 496.288 296.455)" fill="url(#paint16_linear_9_595)"/>
<circle cx="2.42325" cy="2.42325" r="2.42325" transform="matrix(-0.749472 0.662036 -0.749472 -0.662036 511.423 300.664)" fill="url(#paint17_linear_9_595)"/>
<defs>
<filter id="filter0_d_9_595" x="305.896" y="167.962" width="68.8423" height="67.344" filterUnits="userSpaceOnUse" color-interpolation-filters="sRGB">
<feFlood flood-opacity="0" result="BackgroundImageFix"/>
<feColorMatrix in="SourceAlpha" type="matrix" values="0 0 0 0 0 0 0 0 0 0 0 0 0 0 0 0 0 0 127 0" result="hardAlpha"/>
<feMorphology radius="12" operator="erode" in="SourceAlpha" result="effect1_dropShadow_9_595"/>
<feOffset dy="18"/>
<feGaussianBlur stdDeviation="20"/>
<feColorMatrix type="matrix" values="0 0 0 0 0.243137 0 0 0 0 0.741176 0 0 0 0 1 0 0 0 0.45 0"/>
<feBlend mode="normal" in2="BackgroundImageFix" result="effect1_dropShadow_9_595"/>
<feBlend mode="normal" in="SourceGraphic" in2="effect1_dropShadow_9_595" result="shape"/>
</filter>
<filter id="filter1_d_9_595" x="653.491" y="313.921" width="68.8423" height="67.344" filterUnits="userSpaceOnUse" color-interpolation-filters="sRGB">
<feFlood flood-opacity="0" result="BackgroundImageFix"/>
<feColorMatrix in="SourceAlpha" type="matrix" values="0 0 0 0 0 0 0 0 0 0 0 0 0 0 0 0 0 0 127 0" result="hardAlpha"/>
<feMorphology radius="12" operator="erode" in="SourceAlpha" result="effect1_dropShadow_9_595"/>
<feOffset dy="18"/>
<feGaussianBlur stdDeviation="20"/>
<feColorMatrix type="matrix" values="0 0 0 0 0.243137 0 0 0 0 0.741176 0 0 0 0 1 0 0 0 0.45 0"/>
<feBlend mode="normal" in2="BackgroundImageFix" result="effect1_dropShadow_9_595"/>
<feBlend mode="normal" in="SourceGraphic" in2="effect1_dropShadow_9_595" result="shape"/>
</filter>
<filter id="filter2_d_9_595" x="516.508" y="428.873" width="68.8423" height="67.3439" filterUnits="userSpaceOnUse" color-interpolation-filters="sRGB">
<feFlood flood-opacity="0" result="BackgroundImageFix"/>
<feColorMatrix in="SourceAlpha" type="matrix" values="0 0 0 0 0 0 0 0 0 0 0 0 0 0 0 0 0 0 127 0" result="hardAlpha"/>
<feMorphology radius="12" operator="erode" in="SourceAlpha" result="effect1_dropShadow_9_595"/>
<feOffset dy="18"/>
<feGaussianBlur stdDeviation="20"/>
<feColorMatrix type="matrix" values="0 0 0 0 0.243137 0 0 0 0 0.741176 0 0 0 0 1 0 0 0 0.45 0"/>
<feBlend mode="normal" in2="BackgroundImageFix" result="effect1_dropShadow_9_595"/>
<feBlend mode="normal" in="SourceGraphic" in2="effect1_dropShadow_9_595" result="shape"/>
</filter>
<filter id="filter3_d_9_595" x="272.507" y="419.798" width="82.5405" height="79.4442" filterUnits="userSpaceOnUse" color-interpolation-filters="sRGB">
<feFlood flood-opacity="0" result="BackgroundImageFix"/>
<feColorMatrix in="SourceAlpha" type="matrix" values="0 0 0 0 0 0 0 0 0 0 0 0 0 0 0 0 0 0 127 0" result="hardAlpha"/>
<feMorphology radius="12" operator="erode" in="SourceAlpha" result="effect1_dropShadow_9_595"/>
<feOffset dy="18"/>
<feGaussianBlur stdDeviation="20"/>
<feColorMatrix type="matrix" values="0 0 0 0 0.243137 0 0 0 0 0.741176 0 0 0 0 1 0 0 0 0.45 0"/>
<feBlend mode="normal" in2="BackgroundImageFix" result="effect1_dropShadow_9_595"/>
<feBlend mode="normal" in="SourceGraphic" in2="effect1_dropShadow_9_595" result="shape"/>
</filter>
<filter id="filter4_d_9_595" x="508.803" y="385.01" width="71.4106" height="69.6127" filterUnits="userSpaceOnUse" color-interpolation-filters="sRGB">
<feFlood flood-opacity="0" result="BackgroundImageFix"/>
<feColorMatrix in="SourceAlpha" type="matrix" values="0 0 0 0 0 0 0 0 0 0 0 0 0 0 0 0 0 0 127 0" result="hardAlpha"/>
<feMorphology radius="12" operator="erode" in="SourceAlpha" result="effect1_dropShadow_9_595"/>
<feOffset dy="18"/>
<feGaussianBlur stdDeviation="20"/>
<feColorMatrix type="matrix" values="0 0 0 0 0.243137 0 0 0 0 0.741176 0 0 0 0 1 0 0 0 0.45 0"/>
<feBlend mode="normal" in2="BackgroundImageFix" result="effect1_dropShadow_9_595"/>
<feBlend mode="normal" in="SourceGraphic" in2="effect1_dropShadow_9_595" result="shape"/>
</filter>
<filter id="filter5_d_9_595" x="96.141" y="384.253" width="71.4106" height="69.6127" filterUnits="userSpaceOnUse" color-interpolation-filters="sRGB">
<feFlood flood-opacity="0" result="BackgroundImageFix"/>
<feColorMatrix in="SourceAlpha" type="matrix" values="0 0 0 0 0 0 0 0 0 0 0 0 0 0 0 0 0 0 127 0" result="hardAlpha"/>
<feMorphology radius="12" operator="erode" in="SourceAlpha" result="effect1_dropShadow_9_595"/>
<feOffset dy="18"/>
<feGaussianBlur stdDeviation="20"/>
<feColorMatrix type="matrix" values="0 0 0 0 0.243137 0 0 0 0 0.741176 0 0 0 0 1 0 0 0 0.45 0"/>
<feBlend mode="normal" in2="BackgroundImageFix" result="effect1_dropShadow_9_595"/>
<feBlend mode="normal" in="SourceGraphic" in2="effect1_dropShadow_9_595" result="shape"/>
</filter>
<filter id="filter6_d_9_595" x="427.469" y="446.267" width="63.7053" height="62.8064" filterUnits="userSpaceOnUse" color-interpolation-filters="sRGB">
<feFlood flood-opacity="0" result="BackgroundImageFix"/>
<feColorMatrix in="SourceAlpha" type="matrix" values="0 0 0 0 0 0 0 0 0 0 0 0 0 0 0 0 0 0 127 0" result="hardAlpha"/>
<feMorphology radius="12" operator="erode" in="SourceAlpha" result="effect1_dropShadow_9_595"/>
<feOffset dy="18"/>
<feGaussianBlur stdDeviation="20"/>
<feColorMatrix type="matrix" values="0 0 0 0 0.243137 0 0 0 0 0.741176 0 0 0 0 1 0 0 0 0.45 0"/>
<feBlend mode="normal" in2="BackgroundImageFix" result="effect1_dropShadow_9_595"/>
<feBlend mode="normal" in="SourceGraphic" in2="effect1_dropShadow_9_595" result="shape"/>
</filter>
<linearGradient id="paint0_linear_9_595" x1="333.896" y1="177.962" x2="347.784" y2="179.432" gradientUnits="userSpaceOnUse">
<stop stop-color="#1884FF"/>
<stop offset="1" stop-color="#49CDFF"/>
</linearGradient>
<linearGradient id="paint1_linear_9_595" x1="681.491" y1="323.921" x2="695.379" y2="325.391" gradientUnits="userSpaceOnUse">
<stop stop-color="#1884FF"/>
<stop offset="1" stop-color="#49CDFF"/>
</linearGradient>
<linearGradient id="paint2_linear_9_595" x1="544.508" y1="438.873" x2="558.396" y2="440.343" gradientUnits="userSpaceOnUse">
<stop stop-color="#1884FF"/>
<stop offset="1" stop-color="#49CDFF"/>
</linearGradient>
<linearGradient id="paint3_linear_9_595" x1="300.507" y1="429.798" x2="329.208" y2="432.837" gradientUnits="userSpaceOnUse">
<stop stop-color="#1884FF"/>
<stop offset="1" stop-color="#49CDFF"/>
</linearGradient>
<linearGradient id="paint4_linear_9_595" x1="536.803" y1="395.01" x2="553.468" y2="396.774" gradientUnits="userSpaceOnUse">
<stop stop-color="#1884FF"/>
<stop offset="1" stop-color="#49CDFF"/>
</linearGradient>
<linearGradient id="paint5_linear_9_595" x1="124.141" y1="394.253" x2="140.806" y2="396.018" gradientUnits="userSpaceOnUse">
<stop stop-color="#1884FF"/>
<stop offset="1" stop-color="#49CDFF"/>
</linearGradient>
<linearGradient id="paint6_linear_9_595" x1="455.469" y1="456.267" x2="463.802" y2="457.149" gradientUnits="userSpaceOnUse">
<stop stop-color="#1884FF"/>
<stop offset="1" stop-color="#49CDFF"/>
</linearGradient>
<linearGradient id="paint7_linear_9_595" x1="121.929" y1="188.732" x2="121.929" y2="279.564" gradientUnits="userSpaceOnUse">
<stop stop-color="#01FF88"/>
<stop offset="1" stop-color="#43F3DB"/>
</linearGradient>
<linearGradient id="paint8_linear_9_595" x1="470.88" y1="277.789" x2="470.88" y2="286.864" gradientUnits="userSpaceOnUse">
<stop stop-color="#01FF88"/>
<stop offset="1" stop-color="#42F4DA"/>
</linearGradient>
<linearGradient id="paint9_linear_9_595" x1="496.564" y1="306.287" x2="496.564" y2="315.362" gradientUnits="userSpaceOnUse">
<stop stop-color="#01FF88"/>
<stop offset="1" stop-color="#42F4DA"/>
</linearGradient>
<linearGradient id="paint10_linear_9_595" x1="512.831" y1="308.556" x2="512.831" y2="313.093" gradientUnits="userSpaceOnUse">
<stop stop-color="#01FF88"/>
<stop offset="1" stop-color="#42F4DA"/>
</linearGradient>
<linearGradient id="paint11_linear_9_595" x1="2.42325" y1="0" x2="2.42325" y2="4.8465" gradientUnits="userSpaceOnUse">
<stop stop-color="#01FF88"/>
<stop offset="1" stop-color="#42F4DA"/>
</linearGradient>
<linearGradient id="paint12_linear_9_595" x1="496.288" y1="322.625" x2="496.288" y2="327.762" gradientUnits="userSpaceOnUse">
<stop stop-color="#01FF88"/>
<stop offset="1" stop-color="#42F4DA"/>
</linearGradient>
<linearGradient id="paint13_linear_9_595" x1="2.42325" y1="0" x2="2.42325" y2="4.8465" gradientUnits="userSpaceOnUse">
<stop stop-color="#01FF88"/>
<stop offset="1" stop-color="#42F4DA"/>
</linearGradient>
<linearGradient id="paint14_linear_9_595" x1="480.297" y1="308.556" x2="480.297" y2="313.093" gradientUnits="userSpaceOnUse">
<stop stop-color="#01FF88"/>
<stop offset="1" stop-color="#42F4DA"/>
</linearGradient>
<linearGradient id="paint15_linear_9_595" x1="2.42325" y1="0" x2="2.42325" y2="4.8465" gradientUnits="userSpaceOnUse">
<stop stop-color="#01FF88"/>
<stop offset="1" stop-color="#42F4DA"/>
</linearGradient>
<linearGradient id="paint16_linear_9_595" x1="496.288" y1="293.887" x2="496.288" y2="299.024" gradientUnits="userSpaceOnUse">
<stop stop-color="#01FF88"/>
<stop offset="1" stop-color="#42F4DA"/>
</linearGradient>
<linearGradient id="paint17_linear_9_595" x1="2.42325" y1="0" x2="2.42325" y2="4.8465" gradientUnits="userSpaceOnUse">
<stop stop-color="#01FF88"/>
<stop offset="1" stop-color="#42F4DA"/>
</linearGradient>
</defs>
</svg>
